<?xml version="1.0" encoding="UTF-8"?>
<svg id="Vrstva_1" xmlns="http://www.w3.org/2000/svg" version="1.1" viewBox="0 0 500 300">
  <defs>
    <style>
      .st0 {
        fill: #fe4b55;
      }

      .st1 {
        display: none;
        fill: #fefefe;
      }

      .st2 {
        fill: #41479b;
      }

      .st3 {
        fill: #f4f4f4;
      }
    </style>
  </defs>
  <path class="st3" d="M71.8,31.5c4.8-3.7,7.6-8.2,15.6-7.6h327.1s14.6,4.8,14.6,4.8l12.9,13.3v108h-192.6L71.8,31.5Z"/>
  <path class="st0" d="M442,150v105c-5.3,9.1-10.3,17.1-21.2,20l-333.4,1.1c-8.1-.7-11.2-2.5-17.1-7.6l179.1-118.5h192.6Z"/>
  <path class="st2" d="M71.8,31.5l177.7,118.5-179.1,118.5c-6.3-5.4-9.4-10.2-10.5-18.7,4.3-63.8-5.7-135.1,0-198.1s3.1-13.6,8.3-18.8,3.2-1,3.8-1.4Z"/>
</svg>
