<?xml version="1.0" encoding="UTF-8"?>
<svg id="Vrstva_1" xmlns="http://www.w3.org/2000/svg" version="1.1" viewBox="0 0 500 300">
  <defs>
    <style>
      .st0 {
        fill: #fe4b55;
      }

      .st1 {
        fill: #fe525b;
      }

      .st2 {
        display: none;
        fill: #fefefe;
      }

      .st3 {
        fill: #464655;
      }

      .st4 {
        fill: #fee05a;
      }
    </style>
  </defs>
  <path class="st0" d="M442,108v82.5l-1.5,1.5H61l-1.5-1.5c-.2-27.5-.2-55,0-82.5h382.5Z"/>
  <path class="st4" d="M440.5,192h1.5v63c-7,10-12.6,19.5-26.1,21H82.8c-9.7-1.5-20.5-11.1-22.6-20.9-3.2-15.2-.6-46-.7-63.1h381Z"/>
  <path class="st3" d="M442,46.5v61.5H59.5c0-16.8-2.6-48.7.3-63.4,2-9.8,16-19.9,26-20.4h327c15.4,1.4,22.4,9.3,29.2,22.3Z"/>
  <polygon class="st1" points="442 192 440.5 192 442 190.5 442 192"/>
  <path class="st1" d="M61,192h-1.5c0-.5,0-1,0-1.5l1.5,1.5Z"/>
</svg>
