<?xml version="1.0" encoding="UTF-8"?>
<svg id="Vrstva_1" xmlns="http://www.w3.org/2000/svg" version="1.1" viewBox="0 0 500 300">
  <defs>
    <style>
      .st0 { fill: #c9454b; }
      .st1 { fill: #cc5151; }
      .st2 { fill: #cc4d4c; }
      .st3 { fill: #f3f0f1; }
      .st4 { fill: #f4b24d; }
      .st5 { fill: #f1e5df; }
      .st6 { fill: #f5ae4a; }
      .st7 { fill: #f9b346; }
      .st8 { fill: #5665a7; }
      .st9 { fill: #c7424b; }
      .st10 { fill: #cd534f; }
      .st11 { fill: #f4f2f2; }
      .st12 { fill: #f9bb4e; }
      .st13 { fill: #f8b34a; }
      .st14 { fill: #cd4e4b; }
      .st15 { fill: #f4a746; }
      .st16 { fill: #f4b44a; }
      .st17 { fill: #f4f1ee; }
      .st19 { fill: #f5b954; }
      .st20 { fill: #5366a8; }
      .st21 { fill: #f7ad45; }
      .st22 { fill: #fed151; }
      .st23 { fill: #cd5354; }
      .st24 { fill: #f4efe4; }
      .st25 { fill: #fea2d2; }
      .st26 { fill: #c8464e; }
      .st27 { fill: #f4f1ec; }
      .st28 { fill: #f4efe6; }
    </style>
  </defs>
  <path class="st22" d="M442,76.5v147H59.5c-.8-48.8-.8-98.2,0-147h382.5ZM168.6,93c-2.1,1.3-17.4,6.8-21,8.2-4.7,1.8-6.2,5.4-5.9,10.4s3.9,4.9,4.4,5.4c1.8,1.9,2.9,5,6,6v6s-6.4.3-6.4.3l-1,1.2c-9.4,1.5-5.2,12.3-6,19.5-3.5,0-7-.1-10.5,0v-13.5c1.5,0,3,0,4.5,0v-6c-2,0-4,0-6,0,7.1-14.8-16-15-9,0-2,0-4,0-6,0-1.8,6.8,2.8,5.7,3,6,.4.6.4,12.9,0,13.5s-2.6-1.3-3.1,2.2c-.7,5.3,2.9,3.6,3.1,3.8.3.5.3,10.9,0,12s-5.5,3.8-3,9c1.4-.8,3-1,4.5-1.5v13.5c-1.5,0-3,0-4.5,0-.4,1.8.6,6.6,0,7.5s-6-.2-2.1,6h26c1.8-6.8-2.8-5.7-3-6-.4-.7.5-4.1-.7-6-.9-1.5-2.4-1.2-3.8-1.5v-18c2.9-1.4,5.9-.9,4.5-6.6s-3-.8-3-.9c-.5-.9.4-5.8,0-7.5,3,.1,6,0,9,0,0,2,0,4,0,6s0,1,0,1.5c.3,8.4-1,14.7,1.9,22.9s.6,4.8,4.1,4.1c0,.5,0,1,0,1.5.4,2.1.2,1.6,1.5,3s2,.8,3,1.5c10.2,7.1,27.5,8.7,38.9,3.8,2.9-1.2,3.3-3,4.4-3.8,16.4-10.7,11.5-14.6,12-33s0-5,0-7.5h10.5v7.5c-5.2-1.2-5.6,1.4-3.8,6.1.9,1.5,2.9,1,3.8,1.4-.3,6.5.4,13.1,0,19.5s-.2,4.2-1.5,6c-2,0-4,0-6,0v6s26,0,26,0c1.7-.3.8-4.3.9-6,.1-2.5,0-5,0-7.5-1.9.2-4.1-.2-6,0,.6-2.7-.8-12.3,0-13.5s2.9,1.2,3.1-2.2-.8-4.2-3.1-5.3c.5-2.5-.7-10.9,0-12s3.7,1.5,3.1-3.8-2.9-1.9-3.1-2.2c-.4-.6-.4-12.9,0-13.5s4.8.8,3-6c-2,0-4,0-6,0,7.1-14.8-16-15-9,0-1.5,0-3,0-4.5,0-1.8,6.8,2.8,5.6,3,6,.8,1.3-.6,10.8,0,13.5h-10.5c-.5-16.3,4.3-18.7-13.4-19.5v-7.5c3.1-1,4.2-4.1,6-6s4,1,4.4-5.4c.3-5-1.2-8.6-5.9-10.4-6.8-2.7-12.8-5.3-19.5-8.2s-1-3.7-5.2-3.1-2,3-2.2,3.1Z"/>
  <path class="st9" d="M442,223.5v31.5c-6,10.9-12.7,19.5-26.1,21H85.6c-29.9-5.6-25.8-28.9-26.1-52.5h382.5Z"/>
  <path class="st9" d="M442,46.5v30H59.5c.4-23.6-3.8-46.9,26.1-52.5h330.2c13.6,1.5,21.4,10.6,26.1,22.5Z"/>
  <path class="st2" d="M174.5,103.5c.5,0,1,0,1.5,0,1.9.2,3.2,1.2,4.5,1.5,4.1.9,8.2,4,13.3,3.1l3.1,8.9c-1.8,1.9-2.9,5-6,6h-38.8c-3.1-1-4.2-4.1-6-6l3.1-8.9c5.1.9,9.2-2.2,13.3-3.1s7.2-1.7,12-1.5Z"/>
  <path class="st0" d="M144.7,130.5c7.1-1.1,19.1,0,26.9,0v22.5c-.8,0-5.3,1.1-6,1.5,1.8-7.6-5.6-1.4-4.6-8.3s6.7-3.4,4.6-9.7h-20.9c-2.1,7.4,6.4,6,4.5,12.5s-5,1.7-3,7h17.9c-.5.6-3,5.5-3,6h-22.4c0-2,0-4,0-6-3,0-6,.1-9,0-5-.2-10,.1-14.9,0-.2-.3-3.7,1.5-3.1-3.8s2.9-1.9,3.1-2.2c4.5,0,9,.1,13.4,0s7,0,10.5,0c.8-7.2-3.4-18,6-19.5Z"/>
  <path class="st3" d="M191,130.5c17.7.8,13,3.2,13.4,19.5,0,2,0,4,0,6s0,5,0,7.5h-22.4c-.1-5.3-5.3-10.3-10.5-10.5v-22.5c6.4,0,13-.3,19.4,0ZM187.6,136.7c-10.4,1.5-7.4,28.9,6.2,16.8.5-5.3,2.2-18-6.2-16.8Z"/>
  <path class="st26" d="M204.4,163.5c-.4,18.4,4.4,22.3-12,33-7.5,1.9-19.2-4.7-20.9-12s.5-8.4,0-12c2,.2,4-.1,6,0-1.8,26,25.8,21.7,20.9-3h-17.9c-.7-1.9,1.5-5,1.5-6h22.4Z"/>
  <path class="st17" d="M192.5,196.5c-1.1.7-1.5,2.5-4.4,3.8-11.4,4.9-28.7,3.3-38.9-3.8h3c1.8,0,4.4.3,6,0,4.8-.9,4.5-1.6,7.5-4.5s3.9-4.6,6-7.5c1.7,7.3,13.4,13.9,20.9,12Z"/>
  <path class="st6" d="M191,123v7.5c-6.4-.3-13,0-19.4,0s-19.8-1.1-26.9,0l1-1.2,6.4-.3v-6s38.8,0,38.8,0Z"/>
  <path class="st28" d="M168.6,93v9s-6-1.5-6-1.5v4.5c-4.1.9-8.2,4-13.3,3.1l-3.1,8.9c-.5-.5-4,1-4.4-5.4s1.2-8.6,5.9-10.4c3.6-1.4,18.8-6.9,21-8.2Z"/>
  <path class="st24" d="M176,93c6.7,2.9,12.7,5.5,19.5,8.2s6.2,5.4,5.9,10.4c-.4,6.4-3.9,4.9-4.4,5.4l-3.1-8.9c-5.1.9-9.2-2.2-13.3-3.1v-4.5s-4.5,0-4.5,0v3c-.5,0-1,0-1.5,0l1.5-10.5Z"/>
  <path class="st10" d="M161.1,162c-.4,4.9,4.2,8.2,4.5,9,1.4,4.7-1,15.4,0,21-2.9,2.9-2.7,3.6-7.5,4.5v-33c-2,0-4,0-6,0s-5,0-7.5,0h-6c0-.5,0-1,0-1.5h22.4Z"/>
  <path class="st14" d="M152.1,163.5v33h-3c-1-.7-2.9-1.4-3-1.5l-1.5-3c0-.5,0-1,0-1.5-.7-8.7.5-18.2,0-27,2.5,0,5,0,7.5,0Z"/>
  <path class="st27" d="M228.3,175.5c-.8,1.2.6,10.8,0,13.5-3.7.5-8.5,2.8-13.4,1.5.4-6.4-.3-13,0-19.5,4.2,2,8.9,3.3,13.4,4.5Z"/>
  <path class="st11" d="M128.2,189c-3.2-.5-8.5-.1-12,0v-13.5c3.8-1.2,8.5-2.8,12-4.5v18Z"/>
  <path class="st28" d="M228.3,136.5c-.4.6-.4,12.9,0,13.5h-13.4c-.6-2.7.8-12.2,0-13.5h13.4Z"/>
  <path class="st17" d="M128.2,136.5v13.5c-4.5.1-9,0-13.4,0,.4-.6.4-12.9,0-13.5,4.5,0,9,.1,13.4,0Z"/>
  <path class="st0" d="M214.9,150h13.4c.2.3,2.6-1.3,3.1,2.2.7,5.3-2.9,3.6-3.1,3.8h-23.9c0-2,0-4,0-6h10.5Z"/>
  <path class="st20" d="M111.8,196.5h20.9c.2.4,4.8-.8,3,6h-26c-3.8-6.2,1.9-5.6,2.1-6Z"/>
  <path class="st20" d="M213.4,196.5c7-.1,14,0,20.9,0,0,1.7.8,5.8-.9,6h-26s0-6,0-6c2,0,4,0,6,0Z"/>
  <path class="st5" d="M129.7,156c.4,1.7-.5,6.6,0,7.5-4.6,2.4-9.6,4.8-14.9,4.5.3-1.1.3-11.5,0-12,5,.1,10-.2,14.9,0Z"/>
  <path class="st19" d="M116.3,189c3.5-.1,8.8-.5,12,0s2.9,0,3.8,1.5c1.2,2,.3,5.4.7,6h-20.9c.6-.9-.4-5.7,0-7.5,1.5,0,3,0,4.5,0Z"/>
  <path class="st7" d="M144.7,163.5c.5,8.8-.7,18.3,0,27-3.5.8-3.3-1.6-4.1-4.1-2.9-8.3-1.5-14.6-1.9-22.9h6Z"/>
  <path class="st23" d="M214.9,163.5c1.4.3,12.1,3.9,13.4,4.5,2.4,1,3.3,2.6,3.1,5.3s-2.9,1.9-3.1,2.2c-4.5-1.2-9.2-2.5-13.4-4.5s-2.9,0-3.8-1.4c-1.8-4.7-1.5-7.3,3.8-6.1Z"/>
  <path class="st5" d="M228.3,156c-.7,1.1.5,9.5,0,12-1.4-.6-12-4.2-13.4-4.5v-7.5h13.4Z"/>
  <path class="st1" d="M129.7,163.5c0,.1,2.7-.6,3,.9,1.4,5.7-1.7,5.2-4.5,6.6s-8.2,3.3-12,4.5-3.1.7-4.5,1.5c-2.6-5.2,2.8-8.4,3-9,5.4.3,10.3-2.1,14.9-4.5Z"/>
  <path class="st16" d="M228.3,189c1.9-.3,4,.2,6,0,0,2.5.1,5,0,7.5-7,0-14-.1-20.9,0,1.3-1.8,1.4-3.8,1.5-6,4.9,1.3,9.7-1,13.4-1.5Z"/>
  <path class="st7" d="M117.8,130.5c3,0,6,0,9,0s4,0,6,0v6c-1.5,0-3,0-4.5,0-4.5.1-9,0-13.4,0-.2-.3-4.8.8-3-6,2,0,4,0,6,0Z"/>
  <path class="st7" d="M216.4,130.5c3,0,6,0,9,0s4,0,6,0c1.8,6.8-2.8,5.7-3,6h-13.4c-.2-.3-4.8.9-3-6,1.5,0,3,0,4.5,0Z"/>
  <path class="st14" d="M225.3,130.5c-3,0-6,0-9,0-7-15,16-14.8,9,0Z"/>
  <path class="st14" d="M126.7,130.5c-3,0-6,0-9,0-7-15,16-14.8,9,0Z"/>
  <path class="st12" d="M168.6,93c.3-.2-1.3-2.7,2.2-3.1s4.2,2.7,5.2,3.1l-1.5,10.5c-4.8-.2-7.5.5-12,1.5v-4.5s6,1.5,6,1.5v-9Z"/>
  <path class="st10" d="M146.2,195c-1.3-1.4-1.1-.9-1.5-3l1.5,3Z"/>
  <path class="st12" d="M176,103.5v-3s4.5,0,4.5,0v4.5c-1.3-.3-2.6-1.3-4.5-1.5Z"/>
  <path class="st21" d="M164.1,156h-17.9c-2-5.3,2.7-6.1,3-7,1.9-6.5-6.6-5.1-4.5-12.5h20.9c2.1,6.2-4.1,6.3-4.6,9.7-1,6.9,6.4.7,4.6,8.3-.3.2-1.1,1.1-1.5,1.5Z"/>
  <path class="st8" d="M171.6,153c5.2.2,10.3,5.2,10.5,10.5s-2.2,4.1-1.5,6l-3,3c-2-.1-4,.2-6,0s-4.1-.2-6-1.5c-.2-.8-4.8-4.1-4.5-9s2.5-5.4,3-6,1.2-1.3,1.5-1.5c.7-.4,5.2-1.5,6-1.5Z"/>
  <path class="st25" d="M187.6,136.7c8.3-1.2,6.6,11.6,6.2,16.8-13.6,12.1-16.6-15.4-6.2-16.8Z"/>
  <path class="st15" d="M180.5,169.5h17.9c4.9,24.7-22.7,29-20.9,3l3-3Z"/>
  <path class="st13" d="M152.1,163.5c2,0,4,0,6,0v33c-1.6.3-4.1,0-6,0v-33Z"/>
</svg>
