<?xml version="1.0" encoding="UTF-8"?>
<svg id="Vrstva_1" xmlns="http://www.w3.org/2000/svg" version="1.1" viewBox="0 0 500 300">
  <defs>
    <style>
      .st0 {
        fill: #f3f2f2;
      }

      .st1 {
        fill: #fe5059;
      }

      .st2 {
        fill: #43499b;
      }

      .st3 {
        fill: #42489b;
      }

      .st4 {
        fill: #fe4b55;
      }

      .st5 {
        fill: #43499c;
      }

      .st6 {
        fill: #f3eff0;
      }

      .st7 {
        fill: #fefefe;
      }

      .st8 {
        fill: #f5cbce;
      }
    </style>
  </defs>
  <path class="st4" d="M270.2,24v106.5s171.8,0,171.8,0v39h-171.8s0,106.5,0,106.5c-12.9,0-25.9,0-38.8,0v-106.5s-171.8,0-171.8,0c-1.2-12.1,1.7-27.3,0-39h171.8s0-105,0-105v-1.5c12.9,0,25.9,0,38.8,0Z"/>
  <path class="st6" d="M442,169.5v13.5h-103.1s103.1,69,103.1,69v7.5c-2.9-.7-3.1,1.4-4.5,3-.9-2.4-3-3.5-4.9-4.8-36.5-26.3-77.2-48.4-113.9-74.7h-23.2l133,88.5c-9.1,5.9-13.9,4.2-23.9,4.5l-120.3-79.5-.8,79.5c-4.5,0-9,0-13.4,0v-106.5s171.8,0,171.8,0Z"/>
  <path class="st0" d="M229.8,24l1.5,1.5v105s-171.8,0-171.8,0c-.1-.7-.8-1.3-1.5-1.5v-10.5c.4-.5,1.5-1.1,1.5-1.5h103.1c-13-10.4-27.2-19.3-41.1-28.5s-48-27.6-60.5-39,1-4.2-3-3v-3h4.5c.3-1-.2-2.3,0-3l117.3,76.5h23.2L71.4,30c7.4-5,15-5.8,23.9-4.5,1.8.3,3.4.7,4.9,1.7l116.8,76.3.8-79.5c4,0,8,0,12,0Z"/>
  <path class="st6" d="M283.6,24l.8,79.5,120.3-78c5.7.4,12.5-.7,17.9,0l-137.5,91.5h23.2c39.6-27.6,81.6-51.8,121.4-79.2,2-1.3,3.9-2.5,4.9-4.8,3.9,4.3,3.2,9.2,7.5,9v7.5l-103.1,67.5h103.1v13.5h-171.8s0-106.5,0-106.5c4.5,0,9,0,13.4,0Z"/>
  <path class="st0" d="M59.5,169.5h171.8s0,105,0,105l-1.5,1.5c-4,0-8,0-12,0l-.8-79.5-121.8,79.5c-6.5-.2-9.9.4-16.4-1.5l137.5-91.5h-23.2l-126.3,82.5c-.2-.2-2,.4-2.6-.3s-3.9-8.2-4-8.6c-.6-2.2.8-4.3.6-6l101.6-67.5H59.5s-1.5-1.5-1.5-1.5v-10.5l1.5-1.5Z"/>
  <polygon class="st3" points="442 183 442 252 338.9 183 442 183"/>
  <polygon class="st3" points="442 49.5 442 117 338.9 117 442 49.5"/>
  <path class="st7" d="M58,46.5c4-1.2,2.7,2.7,3,3-2.5,1.6-1.5,5.7-1.5,8.2-.2,18.4,2,41.8,0,59.3s-1.1,1-1.5,1.5V46.5Z"/>
  <path class="st7" d="M59.5,130.5c1.7,11.7-1.2,26.9,0,39l-1.5,1.5v-42c.7.2,1.4.8,1.5,1.5Z"/>
  <path class="st2" d="M404.6,276c-39.8,1.3-81,0-121,0l.8-79.5,120.3,79.5Z"/>
  <path class="st5" d="M95.4,276l121.8-79.5.8,79.5c-40.5,0-82.2,1.4-122.5,0Z"/>
  <path class="st3" d="M59.5,183h103.1s-101.6,67.5-101.6,67.5c0-.7-2.4-3.1-1.6-5.1v-62.4Z"/>
  <path class="st1" d="M67,265.5l126.3-82.5h23.2l-137.5,91.5c-7.2-2.1-7.5-3.8-12-9Z"/>
  <path class="st1" d="M437.5,262.5c-3.1,3.5-4.8,6.3-9,9l-133-88.5h23.2c36.7,26.3,77.4,48.4,113.9,74.7,1.9,1.4,4,2.4,4.9,4.8Z"/>
  <path class="st8" d="M231.3,276c-.5,0-1,0-1.5,0l1.5-1.5v1.5Z"/>
  <path class="st2" d="M404.6,25.5l-120.3,78-.8-79.5c40.3.2,81.2-1.1,121,1.5Z"/>
  <path class="st5" d="M217.9,24l-.8,79.5L100.3,27.2c-1.5-1.1-3.2-1.5-4.9-1.7,1.6-2.5,5.7-1.5,8.2-1.5,38.1-.5,76.3,0,114.3,0Z"/>
  <path class="st1" d="M434.5,33c-.9,2.4-2.9,3.5-4.9,4.8-39.7,27.4-81.8,51.5-121.4,79.2h-23.2L422.6,25.5c4.1.6,9.2,4.5,12,7.5Z"/>
  <path class="st1" d="M71.4,30l131.5,87h-23.2L62.5,40.5c1.9-5.1,4.4-7.4,9-10.5Z"/>
  <polygon class="st8" points="231.3 25.5 229.8 24 231.3 24 231.3 25.5"/>
  <path class="st3" d="M61,49.5c12.5,11.4,44.6,28.4,60.5,39s28.1,18.1,41.1,28.5H59.5c2-17.5-.3-40.9,0-59.3,0-2.5-1-6.7,1.5-8.2Z"/>
</svg>
