<?xml version="1.0" encoding="UTF-8"?>
<svg id="Vrstva_1" xmlns="http://www.w3.org/2000/svg" version="1.1" viewBox="0 0 500 300">
  <defs>
    <style>
      .st0 { fill: #86ba23; }
      .st1 { fill: #fe636c; }
      .st2 { fill: #73ae00; }
      .st3 { fill: #fe4b55; }
      .st4 { display: none; fill: #fefefe; }
      .st5 { fill: #f4f4f4; }
      .st6 { fill: #86b923; }
    </style>
  </defs>
  <path class="st3" d="M442,46.5v208.5c-7,9.1-12,19.1-24.8,20.9-27.5,3.8-71.3,0-100.7.1l-1.5-1.5V25.5l1.5-1.5c29,.1,71.8-3.5,99,.4,14.1,2,20.2,10.4,26.5,22.1Z"/>
  <path class="st5" d="M315,24v252c-42.8.1-85.7.1-128.5,0V24c42.8-.2,85.7-.2,128.5,0Z"/>
  <path class="st2" d="M185,24l1.5,1.5v249l-1.5,1.5c-29.8,0-74.4,3.7-102.2-.1-12.6-1.7-22.8-13.3-23.3-26.1,3.7-64.5-4.8-134.3,0-198.1,1.1-15.3,9.8-25.1,25.1-27.3,27.6-4,71-.3,100.5-.4Z"/>
  <path class="st6" d="M186.5,25.5l-1.5-1.5c.5,0,1,0,1.5,0v1.5Z"/>
  <path class="st1" d="M315,25.5v-1.5c.5,0,1,0,1.5,0l-1.5,1.5Z"/>
  <path class="st0" d="M186.5,276c-.5,0-1,0-1.5,0l1.5-1.5v1.5Z"/>
  <path class="st1" d="M316.5,276c-.5,0-1,0-1.5,0v-1.5l1.5,1.5Z"/>
</svg>
