<?xml version="1.0" encoding="UTF-8"?>
<svg id="Vrstva_1" xmlns="http://www.w3.org/2000/svg" version="1.1" viewBox="0 0 500 300">
  <defs>
    <style>
      .st0 { fill: #fe4b55; }
      .st1 { fill: #f4f4f4; }
      .st2 { fill: #fefefe; }
      .st3 { fill: #fdfdfd; }
    </style>
  </defs>
  <path class="st1" d="M442,39v111H59.5l-1.5-1.5V45l3-.8v-2.2s-3,0-3,0v-4.5c1.3-1,3-1,4.5-1.5,7-2.4,11.5-10.6,20.9-12h329.5c13.5-.6,19,9.2,29.1,15Z"/>
  <path class="st0" d="M442,150v106.5c-5.2,1.4-5.1,7.7-9.7,12-4.1,3.8-10.8,6.9-16.4,7.5l-335.5-.7c-7.8-1.7-19.5-13.1-20.7-21.2v-104.2c0,0,382.4,0,382.4,0Z"/>
  <polygon class="st3" points="58 42 61 42 61 44.2 58 45 58 42"/>
  <path class="st2" d="M62.5,36c.1-6,5.6-5.9,8.4-8s11.5-12.8,12.5-4c-9.4,1.4-14,9.6-20.9,12Z"/>
</svg>
