<?xml version="1.0" encoding="UTF-8"?>
<svg id="Vrstva_1" xmlns="http://www.w3.org/2000/svg" version="1.1" viewBox="0 0 500 300">
  <defs>
    <style>
      .st0 {
        fill: #f4edee;
      }

      .st1 {
        fill: #42489b;
      }

      .st2 {
        fill: #fd4f59;
      }

      .st3 {
        fill: #fe4b55;
      }

      .st4 {
        fill: #44489b;
      }

      .st5 {
        fill: #41479b;
      }

      .st6 {
        fill: #f4f4f4;
      }
    </style>
  </defs>
  <path class="st6" d="M58,46.5c4.4-.5,4.6-7.3,7.5-11.2s9.3-8.4,15.2-10.2l335.2-1,14.1,5.4,12.1,12.7v66h-230.1v36.8c0,14.3-11.5,36.6-20.9,47.2s-26.9,24.4-33.5,24c-6.2-.4-26-18.7-30.7-24-7.3-8.2-20.9-28.9-20.9-39.8v-44.2c-13.8-1.7-33.2,2.3-46.3,0s-.9-1.2-1.5-1.5v-60ZM126.7,180c.5.7.6,2.7,2.1,4.5,4.4,5.3,24,24.3,29.9,24,7.6-.4,27.4-21.7,32.3-28.5s13.4-21.1,13.4-26.2v-63.8h-92.6v59.2c0,11,9,22.8,14.9,30.8Z"/>
  <path class="st3" d="M126.7,192c4.7,5.3,24.5,23.6,30.7,24,6.6.4,28.7-18.5,33.5-24h251v63c-6,10.9-12.7,19.5-26.1,21H84.3c-11.3-2.1-21.8-11-24.1-22.4s-.6-44.6-.7-61.6h67.2Z"/>
  <path class="st5" d="M442,108v84h-251c9.4-10.7,20.9-32.9,20.9-47.2v-36.8h230.1Z"/>
  <path class="st2" d="M126.7,180c-6-7.9-14.9-19.8-14.9-30.8v-59.2h92.6v63.8c0,5.2-10,21.4-13.4,26.2-3.7-8.6-12.7-8.1-17.8-11.4s-4.7-7.2-9.1-8.1v-15s19.4.7,19.4.7v-12.7s-19.5,1.5-19.5,1.5v-9s15,.7,15,.7v-12.7s-15,1.5-15,1.5l.7-18h-12.7s1.5,18,1.5,18l-14.9-1.5v13.5s14.9-1.5,14.9-1.5v9s-20.9-1.5-20.9-1.5c1.7,5,1.7,8.5,0,13.5l19.5-.9,1.4,14.4c-4.6.9-7.2,6.2-10.6,8.1-5.5,3.2-14.2,3-16.3,11.4Z"/>
  <path class="st1" d="M59.5,108c13.1,2.3,32.5-1.7,46.3,0v44.2c0,10.9,13.6,31.5,20.9,39.8H59.5c-.2-28,.1-56,0-84Z"/>
  <path class="st4" d="M164.1,160.5c4.3,1,6.8,6.7,9.1,8.1,5.1,3.3,14.2,2.8,17.8,11.4-4.8,6.8-24.6,28.2-32.3,28.5-5.9.3-25.5-18.7-29.9-24-1.5-1.8-1.6-3.8-2.1-4.5,2.1-8.3,10.8-8.1,16.3-11.4,3.4-2,5.9-7.3,10.6-8.1s8.8-.4,10.5,0Z"/>
  <path class="st0" d="M153.6,160.5l-1.4-14.4-19.5.9c1.7-5,1.7-8.5,0-13.5l20.9,1.5v-9s-15,1.5-15,1.5v-13.5s14.9,1.5,14.9,1.5l-1.5-18h12.7s-.7,18-.7,18l14.9-1.5v12.7s-14.9-.7-14.9-.7v9s19.4-1.5,19.4-1.5v12.7s-19.4-.7-19.4-.7v15c-1.7-.4-8.7-.3-10.5,0Z"/>
</svg>
